<?xml version="1.0" encoding="UTF-8" standalone="no"?>
<!DOCTYPE svg PUBLIC "-//W3C//DTD SVG 1.1//EN" "http://www.w3.org/Graphics/SVG/1.1/DTD/svg11.dtd">
<svg width="100%" height="100%" viewBox="0 0 365 91" version="1.1" xmlns="http://www.w3.org/2000/svg" xmlns:xlink="http://www.w3.org/1999/xlink" xml:space="preserve" xmlns:serif="http://www.serif.com/" style="fill-rule:evenodd;clip-rule:evenodd;stroke-linejoin:round;stroke-miterlimit:2;">
    <g transform="matrix(1,0,0,1,-121.344,-111.838)">
        <g id="Монтажная-область1" serif:id="Монтажная область1" transform="matrix(1,0,0,1,121.344,61.8326)">
            <rect x="0" y="50.005" width="364.183" height="90.995" style="fill:none;"/>
            <g id="White" transform="matrix(0.853367,0,0,0.853367,11.3595,36.1463)">
                <g transform="matrix(1,0,0,1,18,24)">
                    <circle cx="45.768" cy="45.497" r="45.503" style="fill:rgb(18,0,0);fill-opacity:0;"/>
                    <path d="M45.768,-0.005C70.881,-0.005 91.27,20.384 91.27,45.497C91.27,70.611 70.881,91 45.768,91C20.654,91 0.265,70.611 0.265,45.497C0.265,20.384 20.654,-0.005 45.768,-0.005ZM45.768,22.26C58.593,22.26 69.005,32.672 69.005,45.497C69.005,58.323 58.593,68.735 45.768,68.735C32.942,68.735 22.53,58.323 22.53,45.497C22.53,32.672 32.942,22.26 45.768,22.26Z" style="fill:rgb(2,0,0);"/>
                </g>
                <g transform="matrix(1.59668,0,0,1.59668,138.574,38.0555)">
                    <path d="M0,39.457L-7.902,39.457L-7.902,0L-1.012,0L17.418,25.703L17.637,25.703L17.637,0L25.539,0L25.539,39.457L18.703,39.457L0.246,13.617L0,13.617L0,39.457Z" style="fill-rule:nonzero;"/>
                </g>
                <g transform="matrix(1.59668,0,0,1.59668,215.065,89.0052)">
                    <path d="M0,-24.363L-5.059,-8.203L5.25,-8.203L0.191,-24.363L0,-24.363ZM10.035,7.547L7.027,-2.023L-6.836,-2.023L-9.844,7.547L-18.32,7.547L-4.621,-31.91L5.086,-31.91L18.812,7.547L10.035,7.547Z" style="fill-rule:nonzero;"/>
                </g>
                <g transform="matrix(-1.59668,0,0,1.59668,721.477,-85.7485)">
                    <rect x="247.275" y="77.538" width="8.258" height="39.457"/>
                </g>
                <g transform="matrix(1.59668,0,0,1.59668,350.322,47.8778)">
                    <path d="M0,27.153L7.109,27.153C9.497,27.153 11.315,26.657 12.564,25.663C13.813,24.67 14.438,23.234 14.438,21.356C14.438,19.515 13.795,18.111 12.51,17.145C11.225,16.179 9.36,15.696 6.918,15.696L0,15.696L0,27.153ZM0,0.001L0,10.255L5.934,10.255C8.139,10.255 9.844,9.795 11.047,8.874C12.25,7.953 12.852,6.654 12.852,4.977C12.852,3.391 12.322,2.166 11.266,1.299C10.208,0.434 8.713,0.001 6.781,0.001L0,0.001ZM9.215,33.305L-8.258,33.305L-8.258,-6.152L8.914,-6.152C12.614,-6.152 15.549,-5.267 17.719,-3.499C19.888,-1.731 20.973,0.666 20.973,3.692C20.973,5.843 20.266,7.73 18.854,9.352C17.44,10.975 15.677,11.941 13.563,12.251L13.563,12.469C16.26,12.67 18.484,13.664 20.234,15.45C21.984,17.236 22.859,19.424 22.859,22.012C22.859,25.495 21.638,28.247 19.195,30.27C16.752,32.294 13.426,33.305 9.215,33.305" style="fill-rule:nonzero;"/>
                </g>
                <g transform="matrix(1.59668,0,0,1.59668,288.043,62.0237)">
                    <path d="M0,9.434L2.446,9.434L2.419,10.063C2.327,12.506 1.43,14.484 -0.274,15.996C-1.979,17.51 -4.181,18.266 -6.878,18.266C-10.178,18.266 -12.789,17.036 -14.712,14.575C-16.636,12.114 -17.597,8.75 -17.597,4.485C-17.597,0.292 -16.677,-2.98 -14.835,-5.332C-12.994,-7.683 -10.442,-8.859 -7.179,-8.859C-4.955,-8.859 -3.046,-8.275 -1.45,-7.109C0.127,-5.955 1.215,-4.36 1.821,-2.333L7.843,-8.355C6.954,-9.698 5.839,-10.911 4.47,-11.976C1.279,-14.455 -2.612,-15.695 -7.206,-15.695C-13.021,-15.695 -17.61,-13.89 -20.974,-10.281C-24.337,-6.671 -26.019,-1.713 -26.019,4.594C-26.019,10.993 -24.328,16.015 -20.946,19.661C-17.565,23.307 -12.921,25.129 -7.015,25.129C-1.528,25.129 2.761,23.598 5.851,20.536C8.94,17.473 10.485,13.253 10.485,7.875L10.485,3.418L-6.016,3.418L0,9.434Z" style="fill-rule:nonzero;"/>
                </g>
                <g transform="matrix(1,0,0,1,18,24)">
                    <circle cx="45.768" cy="45.233" r="32.833" style="fill:rgb(144,144,144);fill-opacity:0;"/>
                    <path d="M45.768,12.4C63.889,12.4 78.601,27.112 78.601,45.233C78.601,63.354 63.889,78.066 45.768,78.066C27.647,78.066 12.935,63.354 12.935,45.233C12.935,27.112 27.647,12.4 45.768,12.4ZM45.768,25.29C56.774,25.29 65.71,34.226 65.71,45.233C65.71,56.24 56.774,65.176 45.768,65.176C34.761,65.176 25.825,56.24 25.825,45.233C25.825,34.226 34.761,25.29 45.768,25.29Z" style="fill:rgb(167,167,167);"/>
                </g>
            </g>
        </g>
    </g>
</svg>
